<svg aria-hidden="true" style="width:0;height:0;position:absolute;overflow:hidden" xmlns="http://www.w3.org/2000/svg"><defs><symbol id="icon-logo" viewBox="0 0 70 32"><path d="M25.845 30.311A9.658 9.658 0 0 1 20.359 32a9.88 9.88 0 0 1-6.698-2.573c-.143-.128 0-.298.148-.202a13.256 13.256 0 0 0 11.818.74c.254-.107.461.165.217.346z"/><path d="M26.464 29.602c-.191-.245-1.255-.117-1.737-.059-.143 0-.164-.107-.037-.202.852-.597 2.245-.426 2.404-.224s-.042 1.598-.837 2.275c-.122.101-.238.048-.185-.085.18-.453.577-1.46.392-1.705zm-1.699-4.496v-.586a.142.142 0 0 1 .042-.107.143.143 0 0 1 .107-.042h2.584a.145.145 0 0 1 .149.149v.501c0 .085-.069.192-.196.368l-1.345 1.934c.514-.03 1.026.08 1.483.32a.263.263 0 0 1 .137.224v.623c0 .085-.095.186-.191.133a2.965 2.965 0 0 0-2.742 0c-.09.048-.185-.048-.185-.133v-.575a.7.7 0 0 1 .095-.4l1.567-2.264h-1.355a.137.137 0 0 1-.104-.04c-.014-.013-.025-.03-.032-.047s-.011-.037-.011-.056zm5.136.026c-.582 0-.619.799-.619 1.295s0 1.561.614 1.561.641-.858.641-1.38a3.69 3.69 0 0 0-.122-1.066.49.49 0 0 0-.53-.394l.016-.016zm0-.836c1.17 0 1.806 1.018 1.806 2.302s-.699 2.232-1.806 2.232c-1.107 0-1.779-1.012-1.779-2.275s.635-2.259 1.779-2.259zm-6.413 4.438c-.028.017-.06.027-.093.027s-.065-.009-.093-.027a2.114 2.114 0 0 1-.455-.533 1.553 1.553 0 0 1-1.302.581 1.118 1.118 0 0 1-1.125-.761 1.14 1.14 0 0 1-.055-.481c-.008-.277.068-.55.218-.783s.368-.413.623-.517a5.39 5.39 0 0 1 1.488-.272 1.443 1.443 0 0 0-.095-.682.568.568 0 0 0-.445-.208.606.606 0 0 0-.635.469c0 .091-.079.16-.148.154l-.757-.059c-.019-.003-.037-.01-.053-.021s-.03-.024-.041-.04a.146.146 0 0 1-.022-.11c.175-.932 1.017-1.215 1.768-1.215.431-.016.854.124 1.191.394.381.362.344.847.344 1.369v1.241c.003.275.111.539.302.735a.15.15 0 0 1 0 .208l-.609.533-.005-.005zm-.794-1.94c.028.291-.023.584-.148.847a.645.645 0 0 1-.53.362c-.307 0-.482-.234-.482-.581 0-.677.604-.799 1.175-.799v.17h-.016zm-9.562 1.94c-.028.017-.06.027-.093.027s-.065-.009-.093-.027a2.114 2.114 0 0 1-.455-.533 1.578 1.578 0 0 1-1.303.581 1.125 1.125 0 0 1-1.165-1.22c-.009-.277.067-.551.217-.784s.369-.413.625-.517a5.39 5.39 0 0 1 1.488-.272 1.396 1.396 0 0 0-.101-.682.537.537 0 0 0-.44-.208.602.602 0 0 0-.635.469c0 .091-.079.16-.148.154l-.757-.08c-.019-.003-.037-.01-.053-.021s-.03-.024-.041-.04a.146.146 0 0 1-.022-.11c.175-.932 1.017-1.215 1.768-1.215.43-.017.851.123 1.186.394.386.362.349.847.349 1.369v1.241c-.002.27.094.532.27.735.014.013.025.03.033.047s.011.037.011.056a.138.138 0 0 1-.044.103l-.609.533.011-.005zm-.795-1.94c.028.291-.023.584-.148.847a.659.659 0 0 1-.529.362c-.302 0-.477-.234-.477-.581 0-.677.604-.799 1.175-.799v.17h-.021zm3.103-.356c0-.474 0-1.124.53-1.124s.482.666.482 1.124v2.163a.144.144 0 0 0 .138.144h.789a.14.14 0 0 0 .106-.04.145.145 0 0 0 .047-.104v-2.163a2.548 2.548 0 0 1 .074-.783.526.526 0 0 1 .471-.336.411.411 0 0 1 .466.352c.019.255.019.512 0 .767v2.163a.148.148 0 0 0 .143.144h.789a.14.14 0 0 0 .106-.04.145.145 0 0 0 .047-.104v-2.579a2.148 2.148 0 0 0-.201-1.279 1.12 1.12 0 0 0-.911-.448 1.123 1.123 0 0 0-1.096.757 1.064 1.064 0 0 0-1.022-.756c-.235-.01-.467.059-.658.196s-.333.334-.401.561v-.533c-.001-.039-.018-.075-.045-.102s-.065-.042-.103-.042h-.683a.137.137 0 0 0-.104.04c-.014.013-.025.03-.032.047s-.011.037-.011.056v4.065a.142.142 0 0 0 .042.107.143.143 0 0 0 .107.042h.81c.019 0 .038-.004.056-.011s.034-.019.047-.033a.146.146 0 0 0 .04-.106v-2.131l-.021-.016zm17.934 2.157a.142.142 0 0 1-.042.107.143.143 0 0 1-.107.042h-.789a.15.15 0 0 1-.148-.149V24.53c.001-.039.018-.075.045-.102s.065-.042.103-.042h.731c.034-.002.067.008.095.028s.046.05.054.083v.623c.055-.239.19-.452.383-.603s.432-.229.676-.223a1.052 1.052 0 0 1 .921.485c.174.398.245.835.206 1.268v2.568a.142.142 0 0 1-.148.127h-.763c-.034-.001-.067-.015-.093-.038s-.041-.055-.045-.09v-2.467c0-.826-.318-.847-.498-.847a.528.528 0 0 0-.456.32 1.845 1.845 0 0 0-.127.778v2.195zM2.61 28.734l-.064-.416a2.054 2.054 0 0 1-.63.378 1.864 1.864 0 0 1-.683.139 1.223 1.223 0 0 1-.9-.325 1.122 1.122 0 0 1-.339-.864 1.155 1.155 0 0 1 .413-.933 1.681 1.681 0 0 1 1.107-.346 4.13 4.13 0 0 1 1.001.139v-.533a.78.78 0 0 0-.196-.607.975.975 0 0 0-.662-.176 4.326 4.326 0 0 0-1.393.25v-.554c.22-.112.456-.191.699-.234.273-.058.552-.086.831-.085.394-.033.788.079 1.107.314a1.21 1.21 0 0 1 .36.959v2.893H2.61zm-1.191-.496a1.86 1.86 0 0 0 1.096-.41v-.81a3.464 3.464 0 0 0-.842-.107c-.593 0-.895.234-.895.693a.632.632 0 0 0 .169.469c.065.058.14.102.222.131s.168.04.255.034h-.005zm5.735.496v-2.707a.93.93 0 0 0-.175-.623.655.655 0 0 0-.53-.197 2.168 2.168 0 0 0-1.228.405v3.122h-.789v-4.049h.657l.079.448a2.601 2.601 0 0 1 1.588-.565 1.16 1.16 0 0 1 .879.309 1.21 1.21 0 0 1 .302.905v2.973l-.784-.021zm33.479-.155a2.264 2.264 0 0 1-1.059.24 1.858 1.858 0 0 1-1.429-.533 2.673 2.673 0 0 1 0-3.128 1.888 1.888 0 0 1 1.445-.533c.346-.002.688.075 1.001.224v.565a2.928 2.928 0 0 0-.879-.165 1.196 1.196 0 0 0-.959.341c-.22.309-.323.687-.291 1.066v.101c-.03.379.075.757.297 1.066a1.182 1.182 0 0 0 .937.341c.319-.006.635-.06.937-.16v.575zm2.468.272a1.805 1.805 0 0 1-1.414-.564 2.674 2.674 0 0 1 0-3.154 2.045 2.045 0 0 1 2.822 0 2.674 2.674 0 0 1 0 3.154 1.79 1.79 0 0 1-1.408.564zm0-.639c.741 0 1.117-.501 1.117-1.508s-.376-1.497-1.117-1.497-1.117.495-1.117 1.497c0 1.002.371 1.508 1.117 1.508zm8.022.522v-2.749a.948.948 0 0 0-.148-.586.58.58 0 0 0-.477-.192 2.215 2.215 0 0 0-1.165.357.842.842 0 0 1 0 .123v3.048h-.784v-2.749a.977.977 0 0 0-.148-.586.58.58 0 0 0-.477-.192 2.139 2.139 0 0 0-1.16.352v3.197h-.784v-4.049h.657l.079.41a2.634 2.634 0 0 1 1.483-.533.99.99 0 0 1 1.006.548 2.638 2.638 0 0 1 1.589-.565 1.096 1.096 0 0 1 .842.309c.205.254.302.58.27.906v2.973l-.784-.021zm1.943 1.641v-5.69h.657l.074.416a1.965 1.965 0 0 1 1.34-.533 1.45 1.45 0 0 1 1.212.533c.317.444.474.983.445 1.529a2.454 2.454 0 0 1-.471 1.598 1.513 1.513 0 0 1-1.244.592 1.752 1.752 0 0 1-1.228-.469v2.025h-.784zm1.848-5.168a1.762 1.762 0 0 0-1.059.368v2.222c.301.242.674.376 1.059.384.731 0 1.091-.495 1.091-1.481a1.885 1.885 0 0 0-.265-1.124.921.921 0 0 0-.826-.367zm5.21 3.527-.064-.416a2.054 2.054 0 0 1-.63.378 1.89 1.89 0 0 1-.688.139 1.234 1.234 0 0 1-.9-.325 1.146 1.146 0 0 1-.333-.863 1.15 1.15 0 0 1 .407-.933 1.682 1.682 0 0 1 1.112-.346 4.13 4.13 0 0 1 1.001.139v-.533a.79.79 0 0 0-.196-.607.975.975 0 0 0-.662-.176 4.33 4.33 0 0 0-1.398.25v-.554c.22-.112.456-.191.699-.234a4 4 0 0 1 .831-.085c.396-.032.79.08 1.112.314a1.206 1.206 0 0 1 .355.959v2.893h-.646zm-1.191-.496a1.86 1.86 0 0 0 1.096-.41v-.81a3.464 3.464 0 0 0-.842-.107c-.598 0-.895.234-.895.693a.619.619 0 0 0 .164.469.661.661 0 0 0 .477.165zm5.724.496v-2.707a.963.963 0 0 0-.169-.623.655.655 0 0 0-.53-.197 2.168 2.168 0 0 0-1.228.405v3.122h-.784v-4.049h.657l.079.448a2.595 2.595 0 0 1 1.588-.565 1.19 1.19 0 0 1 .884.309c.211.244.318.562.297.884v2.973h-.794zm5.2-4.049-1.832 4.758a1.874 1.874 0 0 1-.498.789 1.11 1.11 0 0 1-.736.24 1.695 1.695 0 0 1-.614-.112v-.565c.147.037.298.055.45.053a.68.68 0 0 0 .466-.149c.143-.15.247-.333.302-.533l.154-.405-1.621-4.087h.842l1.159 3.314 1.117-3.314h.81v.011zM15.737 8.322H2.283v-.075c.048-.476.158-.944.328-1.391a7.45 7.45 0 0 1 3.214-3.985 6.327 6.327 0 0 1 3.346-.826 6.73 6.73 0 0 1 2.568.495c.775.31 1.485.766 2.091 1.343a6.392 6.392 0 0 1 1.393 1.961 5.64 5.64 0 0 1 .53 2.398l-.016.08zM9.293 0a9.18 9.18 0 0 0-3.738.741 9.12 9.12 0 0 0-2.944 2.073A9.374 9.374 0 0 0 .678 5.91 10.885 10.885 0 0 0 0 9.799a11.448 11.448 0 0 0 .667 3.996 9.076 9.076 0 0 0 1.906 3.117 8.638 8.638 0 0 0 2.976 2.041c1.227.5 2.541.748 3.865.73a11.119 11.119 0 0 0 4.575-.932 8.195 8.195 0 0 0 3.447-3.016l-1.668-1.412a6.627 6.627 0 0 1-2.647 2.403 7.91 7.91 0 0 1-3.643.906 6.85 6.85 0 0 1-3.548-.826 7.213 7.213 0 0 1-2.192-1.982 7.094 7.094 0 0 1-1.128-2.36 8.34 8.34 0 0 1-.307-1.998v-.075h15.715V8.734a9.451 9.451 0 0 0-.582-3.197 8.526 8.526 0 0 0-1.668-2.813A8.325 8.325 0 0 0 13.057.742a8.977 8.977 0 0 0-3.765-.746v.005zm27.205 8.322H23.049v-.075c.048-.476.158-.944.328-1.391a7.529 7.529 0 0 1 1.107-2.083 7.357 7.357 0 0 1 2.118-1.897 6.285 6.285 0 0 1 3.346-.826 6.705 6.705 0 0 1 2.563.495 6.514 6.514 0 0 1 2.118 1.343 6.344 6.344 0 0 1 1.34 1.961c.348.751.529 1.569.529 2.398v.075zM30.059 0a9.216 9.216 0 0 0-3.744.741 9.115 9.115 0 0 0-2.933 2.067 9.29 9.29 0 0 0-1.933 3.096 10.76 10.76 0 0 0-.683 3.895 11.564 11.564 0 0 0 .662 3.996 9.17 9.17 0 0 0 1.911 3.117 8.647 8.647 0 0 0 2.976 2.041c1.227.5 2.541.748 3.865.73a11.119 11.119 0 0 0 4.575-.932 8.167 8.167 0 0 0 3.436-3.016l-1.668-1.412a6.568 6.568 0 0 1-2.674 2.403 7.91 7.91 0 0 1-3.643.906 6.85 6.85 0 0 1-3.548-.826 7.213 7.213 0 0 1-2.192-1.982 7 7 0 0 1-1.112-2.36 8.34 8.34 0 0 1-.307-1.998v-.075h15.737V8.734a9.597 9.597 0 0 0-.561-3.197 8.526 8.526 0 0 0-1.668-2.813A8.384 8.384 0 0 0 33.849.742a9.027 9.027 0 0 0-3.765-.746l-.026.005zm29.44 17.63a7.639 7.639 0 0 1-3.113-.618 7.268 7.268 0 0 1-2.377-1.673 7.122 7.122 0 0 1-1.493-2.472 9.171 9.171 0 0 1 0-6.053 7.227 7.227 0 0 1 1.493-2.478 7.275 7.275 0 0 1 2.377-1.668 8.152 8.152 0 0 1 6.227 0 7.046 7.046 0 0 1 3.876 4.145 9.184 9.184 0 0 1 0 6.053 7.167 7.167 0 0 1-1.499 2.472 7.224 7.224 0 0 1-2.377 1.673 7.625 7.625 0 0 1-3.113.618zm0-17.63a10.501 10.501 0 0 0-3.939.741 8.887 8.887 0 0 0-3.098 2.041 9.459 9.459 0 0 0-2.012 3.117 10.54 10.54 0 0 0-.715 3.943 10.554 10.554 0 0 0 .725 3.953 9.459 9.459 0 0 0 2.012 3.117 9.046 9.046 0 0 0 3.087 2.041 10.51 10.51 0 0 0 3.945.73 10.366 10.366 0 0 0 3.929-.73c1.161-.459 2.216-1.154 3.098-2.042s1.575-1.948 2.032-3.116a11.138 11.138 0 0 0 0-7.907 9.366 9.366 0 0 0-2.033-3.117 9.198 9.198 0 0 0-3.103-2.03 10.366 10.366 0 0 0-3.929-.73V0zM41.513 19.191h2.282V8.983a9.113 9.113 0 0 1 .365-2.616 6.055 6.055 0 0 1 1.133-2.131 5.166 5.166 0 0 1 1.933-1.428 6.745 6.745 0 0 1 2.695-.533V.144c-2.648.053-4.739.874-6.184 2.43-2.377 2.552-2.224 6.26-2.224 6.298v10.32z"/></symbol><symbol id="icon-amazon-logo" viewBox="0 0 105 32"><path fill="#f90" style="fill:var(--color1,#f90)" d="M64.653 24.561c-6.055 4.468-14.833 6.845-22.392 6.845-10.595 0-20.134-3.916-27.353-10.434-.567-.513-.061-1.211.62-.815 7.788 4.533 17.421 7.262 27.37 7.262 6.711 0 14.087-1.393 20.876-4.271 1.024-.435 1.883.674.88 1.415z"/><path fill="#f90" style="fill:var(--color1,#f90)" d="M67.172 21.684c-.775-.991-5.119-.469-7.071-.236-.59.071-.683-.445-.15-.819 3.466-2.435 9.146-1.731 9.806-.917.664.823-.174 6.516-3.423 9.233-.5.417-.976.195-.753-.356.73-1.827 2.366-5.912 1.591-6.904z"/><path fill="#221f1f" style="fill:var(--color2,#221f1f)" d="M60.238 3.431V1.065a.583.583 0 0 1 .6-.599L71.44.465c.338 0 .611.247.611.597v2.029c-.004.341-.29.785-.799 1.49l-5.491 7.841c2.038-.047 4.195.259 6.047 1.3.417.233.529.581.562.922v2.525c0 .346-.38.751-.781.541-3.263-1.71-7.593-1.897-11.201.02-.369.197-.754-.201-.754-.548v-2.399c0-.385.006-1.042.394-1.626l6.363-9.128-5.541-.001c-.338 0-.611-.242-.612-.595zM81.179.161c4.787 0 7.375 4.11 7.375 9.336 0 5.05-2.858 9.057-7.375 9.057-4.696 0-7.257-4.111-7.257-9.232 0-5.155 2.59-9.161 7.257-9.161zm.029 3.379c-2.379 0-2.529 3.239-2.529 5.26 0 2.02-.029 6.338 2.499 6.338 2.499 0 2.619-3.483 2.619-5.607 0-1.394-.06-3.066-.482-4.39-.361-1.149-1.084-1.601-2.108-1.601zM51.787 10.299v-.698c-2.332 0-4.797.5-4.797 3.247 0 1.397.724 2.339 1.961 2.339.904 0 1.72-.56 2.232-1.467.633-1.117.603-2.165.603-3.422zm3.253 7.865c-.212.191-.603.197-.762.074-1.101-.852-1.849-2.148-1.849-2.148-1.771 1.804-3.025 2.346-5.317 2.346-2.716 0-4.828-1.678-4.828-5.028 0-2.618 1.418-4.4 3.441-5.271 1.749-.77 4.194-.908 6.064-1.118 0 0 .157-2.021-.392-2.758-.425-.571-1.146-.838-1.81-.838-1.196-.005-2.352.646-2.582 1.898-.065.357-.329.659-.608.628l-3.088-.336a.568.568 0 0 1-.482-.674C43.546 1.147 46.97.001 50.041.001c1.568 0 3.62.418 4.858 1.607 1.568 1.467 1.418 3.42 1.418 5.551v5.024c0 1.512.627 2.175 1.217 2.989.205.295.252.642-.01.857a283.4 283.4 0 0 0-2.482 2.136zM9.504 10.299v-.698c-2.332 0-4.797.5-4.797 3.247 0 1.397.724 2.339 1.961 2.339.904 0 1.72-.56 2.232-1.467.633-1.117.603-2.165.603-3.422zm3.253 7.865c-.214.191-.603.197-.762.074-1.103-.852-1.849-2.148-1.849-2.148-1.771 1.804-3.025 2.346-5.317 2.346C2.113 18.436 0 16.758 0 13.408c0-2.618 1.418-4.4 3.439-5.271 1.75-.77 4.195-.908 6.065-1.118 0 0 .156-2.021-.392-2.758-.425-.571-1.146-.838-1.81-.838-1.197-.005-2.353.646-2.582 1.898-.066.357-.329.659-.608.628l-3.088-.336a.567.567 0 0 1-.482-.674C1.261 1.147 4.685.001 7.755.001c1.568 0 3.62.418 4.858 1.607 1.568 1.467 1.418 3.42 1.418 5.551v5.024c0 1.512.627 2.175 1.216 2.989.206.295.253.642-.01.857a294.99 294.99 0 0 0-2.481 2.136zM22.189 8.835c0-1.917-.09-4.564 2.227-4.564 2.288 0 1.987 2.717 1.987 4.564l.004 8.776c0 .317.256.575.579.594h3.222a.608.608 0 0 0 .622-.595V8.836c0-.941-.029-2.334.301-3.17s1.144-1.36 1.927-1.36c.932 0 1.656.314 1.897 1.428.15.663.09 2.404.09 3.101l.001 8.776c0 .317.254.575.579.594h3.221a.607.607 0 0 0 .622-.595l.004-10.446c0-1.778.21-3.798-.814-5.191C37.755.719 36.281.162 34.925.162c-1.897 0-3.672.976-4.456 3.066-.903-2.09-2.167-3.066-4.185-3.066-1.987 0-3.462.976-4.245 3.066h-.061V1.114a.603.603 0 0 0-.603-.603h-3.01a.602.602 0 0 0-.602.603v16.49c0 .332.268.602.602.602h3.221c.333 0 .603-.27.603-.602V8.836zM95.392 17.602c0 .333-.27.603-.603.603h-3.221a.603.603 0 0 1-.602-.603V1.112c0-.332.27-.603.602-.603h2.978c.35 0 .603.281.603.472v2.524h.062c.903-2.264 2.167-3.344 4.395-3.344 1.447 0 2.861.523 3.764 1.951.845 1.323.845 3.553.845 5.155v10.416a.614.614 0 0 1-.62.521h-3.234a.606.606 0 0 1-.573-.521l.005-10.003c0-3.347-1.282-3.445-2.021-3.445-.861 0-1.555.673-1.857 1.3-.45 1.011-.523 2.044-.523 3.16v8.906z"/></symbol><symbol id="icon-fb" viewBox="0 0 32 32"><path d="M17.092 32H1.766A1.766 1.766 0 0 1 0 30.234V1.766C0 .79.791 0 1.766 0h28.468C31.209 0 32 .791 32 1.766v28.468c0 .975-.791 1.766-1.766 1.766H22.08V19.608h4.159l.623-4.829H22.08v-3.083c0-1.398.388-2.351 2.393-2.351l2.557-.001V5.025c-.442-.059-1.96-.19-3.727-.19-3.687 0-6.211 2.251-6.211 6.384v3.562h-4.17v4.829h4.17v12.392z"/></symbol><symbol id="icon-inst" viewBox="0 0 32 32"><path d="M16 0c-4.345 0-4.89.018-6.597.096C7.7.174 6.537.444 5.519.84c-1.052.409-1.944.956-2.834 1.845S1.248 4.467.84 5.519C.444 6.537.174 7.7.096 9.403.018 11.11 0 11.654 0 16s.018 4.89.096 6.597c.078 1.703.348 2.866.744 3.884.409 1.052.956 1.944 1.845 2.834s1.782 1.437 2.834 1.846c1.018.395 2.181.666 3.884.744 1.707.078 2.251.096 6.597.096s4.89-.018 6.597-.096c1.703-.078 2.866-.348 3.884-.744 1.052-.409 1.944-.956 2.834-1.846s1.437-1.782 1.846-2.834c.395-1.018.666-2.181.744-3.884.078-1.707.096-2.252.096-6.597s-.018-4.89-.096-6.597c-.078-1.703-.348-2.866-.744-3.884-.409-1.052-.956-1.944-1.846-2.834S27.533 1.248 26.481.84C25.463.444 24.3.174 22.597.096 20.89.018 20.345 0 16 0zm0 2.883c4.272 0 4.778.016 6.465.093 1.56.071 2.407.332 2.971.551.747.29 1.28.637 1.84 1.197s.907 1.093 1.197 1.84c.219.564.48 1.411.551 2.971.077 1.687.093 2.193.093 6.465s-.016 4.778-.093 6.465c-.071 1.56-.332 2.407-.551 2.971-.29.747-.637 1.28-1.197 1.84s-1.093.907-1.84 1.197c-.564.219-1.411.48-2.971.551-1.687.077-2.193.093-6.465.093s-4.778-.016-6.465-.093c-1.56-.071-2.407-.332-2.971-.551-.747-.29-1.28-.637-1.84-1.197s-.907-1.093-1.197-1.84c-.219-.564-.48-1.411-.551-2.971-.077-1.687-.093-2.193-.093-6.465s.016-4.778.093-6.465c.071-1.56.332-2.407.551-2.971.29-.747.637-1.28 1.197-1.84s1.093-.907 1.84-1.197c.564-.219 1.411-.48 2.971-.551 1.687-.077 2.193-.093 6.465-.093zM7.784 16a8.216 8.216 0 1 1 16.432 0 8.216 8.216 0 0 1-16.432 0zM16 21.333a5.333 5.333 0 1 1 0-10.667 5.333 5.333 0 0 1 0 10.667zm8.541-11.954a1.92 1.92 0 1 0-.001-3.841 1.92 1.92 0 0 0 .001 3.841z"/></symbol><symbol id="icon-lin" viewBox="0 0 32 32"><path d="M3.767 8.311h-.045C1.464 8.311 0 6.8 0 4.885c0-1.952 1.507-3.431 3.81-3.431 2.301 0 3.716 1.475 3.761 3.426 0 1.915-1.46 3.431-3.804 3.431zM32 30.545h-7.072V20.318c0-2.677-1.106-4.504-3.539-4.504-1.861 0-2.895 1.233-3.377 2.422-.159.376-.156.881-.153 1.402l.001.213v10.694h-7.007s.09-18.116 0-19.762h7.007v3.101c.414-1.356 2.653-3.291 6.226-3.291 4.433 0 7.915 2.843 7.915 8.964v10.988zM7.044 10.783H.807v19.762h6.237V10.783z"/></symbol><symbol id="icon-pin" viewBox="0 0 32 32"><path d="M16.001 0C7.165 0 0 7.163 0 16.001c0 6.55 3.94 12.179 9.579 14.654-.045-1.116-.008-2.459.277-3.675.309-1.298 2.058-8.717 2.058-8.717s-.51-1.022-.51-2.533c0-2.371 1.375-4.141 3.086-4.141 1.454 0 2.158 1.093 2.158 2.403 0 1.462-.933 3.65-1.413 5.677-.401 1.699.85 3.082 2.525 3.082 3.031 0 5.073-3.893 5.073-8.507 0-3.505-2.361-6.13-6.657-6.13-4.852 0-7.876 3.618-7.876 7.66 0 1.396.41 2.378 1.054 3.138.297.352.337.491.229.894-.075.292-.252 1.003-.325 1.283-.107.404-.435.551-.8.401-2.237-.913-3.278-3.361-3.278-6.113 0-4.544 3.833-9.997 11.434-9.997 6.11 0 10.13 4.424 10.13 9.167 0 6.277-3.489 10.966-8.635 10.966-1.725 0-3.351-.933-3.908-1.993 0 0-.93 3.686-1.125 4.397-.339 1.232-1.003 2.467-1.611 3.426 1.439.425 2.96.657 4.535.657 8.836 0 15.999-7.163 15.999-15.999C31.999 7.163 24.836 0 16 0z"/></symbol><symbol id="icon-twit" viewBox="0 0 32 32"><path d="M32 5.824a12.816 12.816 0 0 1-3.77 1.059 6.715 6.715 0 0 0 2.887-3.723 12.932 12.932 0 0 1-4.172 1.631 6.474 6.474 0 0 0-4.791-2.124c-3.623 0-6.563 3.014-6.563 6.732 0 .528.056 1.04.169 1.533-5.456-.281-10.293-2.958-13.533-7.036a6.858 6.858 0 0 0-.888 3.388 6.777 6.777 0 0 0 2.921 5.603 6.445 6.445 0 0 1-2.975-.84v.083c0 3.263 2.263 5.984 5.269 6.601a6.451 6.451 0 0 1-2.966.118c.836 2.674 3.259 4.621 6.133 4.673a12.96 12.96 0 0 1-8.154 2.883c-.53 0-1.054-.031-1.566-.092a18.279 18.279 0 0 0 10.064 3.022c12.077 0 18.679-10.256 18.679-19.153 0-.293-.006-.586-.017-.873a13.479 13.479 0 0 0 3.274-3.484z"/></symbol></defs></svg>